<?xml version="1.0" encoding="UTF-8" standalone="no"?>
<!DOCTYPE svg PUBLIC "-//W3C//DTD SVG 1.1//EN" "http://www.w3.org/Graphics/SVG/1.1/DTD/svg11.dtd">
<svg width="100%" height="100%" viewBox="0 0 100 100" version="1.1" xmlns="http://www.w3.org/2000/svg" xmlns:xlink="http://www.w3.org/1999/xlink" xml:space="preserve" xmlns:serif="http://www.serif.com/" style="fill-rule:evenodd;clip-rule:evenodd;stroke-linejoin:round;stroke-miterlimit:2;">
    <g transform="matrix(4.16667,0,0,4.16667,0,0)">
        <g id="Layer1">
            <path d="M14.588,10.514C14.297,10.514 14.048,10.41 13.84,10.203C13.633,9.996 13.529,9.746 13.529,9.455C13.529,9.164 13.633,8.915 13.84,8.707C14.048,8.5 14.297,8.396 14.588,8.396C14.879,8.396 15.129,8.5 15.336,8.707C15.543,8.915 15.647,9.164 15.647,9.455C15.647,9.746 15.543,9.996 15.336,10.203C15.129,10.41 14.879,10.514 14.588,10.514ZM20.941,10.514C20.941,9.482 20.747,8.518 20.359,7.622C19.97,6.726 19.441,5.943 18.77,5.272C18.1,4.602 17.317,4.072 16.421,3.684C15.526,3.296 14.562,3.102 13.529,3.102L13.529,1.513C14.782,1.513 15.951,1.747 17.037,2.215C18.122,2.682 19.075,3.327 19.895,4.147C20.716,4.968 21.36,5.921 21.828,7.006C22.295,8.092 22.529,9.261 22.529,10.514L20.941,10.514ZM17.765,10.514C17.765,9.923 17.654,9.373 17.434,8.866C17.213,8.359 16.909,7.911 16.52,7.523C16.132,7.134 15.684,6.83 15.177,6.609C14.67,6.389 14.12,6.278 13.529,6.278L13.529,4.69C14.341,4.69 15.098,4.842 15.799,5.147C16.501,5.451 17.116,5.868 17.645,6.397C18.175,6.927 18.592,7.542 18.896,8.244C19.201,8.945 19.353,9.702 19.353,10.514L17.765,10.514Z" style="fill:white;fill-rule:nonzero;"/>
        </g>
        <path d="M16.979,22C17.812,22 18.521,21.708 19.104,21.125C19.687,20.542 19.979,19.833 19.979,19L20.979,19C21.529,19 22,18.804 22.392,18.413C22.783,18.021 22.979,17.55 22.979,17L22.979,12L11.979,12L11.979,8C11.979,7.45 11.783,6.979 11.392,6.587C11,6.196 10.529,6 9.979,6L7.979,6L7.979,5C7.979,4.717 7.883,4.479 7.692,4.287C7.5,4.096 7.262,4 6.979,4L5.979,4C5.696,4 5.458,4.096 5.267,4.287C5.075,4.479 4.979,4.717 4.979,5L4.979,6L4.429,6C3.996,6 3.604,6.125 3.254,6.375C2.904,6.625 2.662,6.958 2.529,7.375L1.079,11.675C1.046,11.775 1.021,11.879 1.004,11.987C0.987,12.096 0.979,12.208 0.979,12.325L0.979,19L3.979,19C3.979,19.833 4.271,20.542 4.854,21.125C5.437,21.708 6.146,22 6.979,22C7.812,22 8.521,21.708 9.104,21.125C9.687,20.542 9.979,19.833 9.979,19L13.979,19C13.979,19.833 14.271,20.542 14.854,21.125C15.437,21.708 16.146,22 16.979,22ZM16.979,20C16.696,20 16.458,19.904 16.267,19.712C16.075,19.521 15.979,19.283 15.979,19C15.979,18.717 16.075,18.479 16.267,18.288C16.458,18.096 16.696,18 16.979,18C17.262,18 17.5,18.096 17.692,18.288C17.883,18.479 17.979,18.717 17.979,19C17.979,19.283 17.883,19.521 17.692,19.712C17.5,19.904 17.262,20 16.979,20ZM6.979,20C6.696,20 6.458,19.904 6.267,19.712C6.075,19.521 5.979,19.283 5.979,19C5.979,18.717 6.075,18.479 6.267,18.288C6.458,18.096 6.696,18 6.979,18C7.262,18 7.5,18.096 7.692,18.288C7.883,18.479 7.979,18.717 7.979,19C7.979,19.283 7.883,19.521 7.692,19.712C7.5,19.904 7.262,20 6.979,20ZM20.979,14L20.979,17L19.204,17C18.921,16.683 18.587,16.438 18.204,16.262C17.821,16.087 17.412,16 16.979,16C16.546,16 16.137,16.087 15.754,16.262C15.371,16.438 15.037,16.683 14.754,17L11.979,17L11.979,14L20.979,14ZM9.979,17L9.204,17C8.921,16.683 8.587,16.438 8.204,16.262C7.821,16.087 7.412,16 6.979,16C6.546,16 6.137,16.087 5.754,16.262C5.371,16.438 5.037,16.683 4.754,17L2.979,17L2.979,14L9.979,14L9.979,17ZM9.979,12L3.079,12L4.429,8L9.979,8L9.979,12ZM11.979,14L20.979,14L11.979,14ZM9.979,14L2.979,14L9.979,14Z" style="fill:white;fill-rule:nonzero;"/>
    </g>
</svg>
